<svg width="88" height="27" viewBox="0 0 88 27" fill="none" xmlns="http://www.w3.org/2000/svg">
<path d="M9.5538 10.2529C7.98981 8.39665 5.21718 8.15976 3.36097 9.72375C1.50476 11.2877 1.26786 14.0604 2.83185 15.9166L9.30466 23.5988C10.8687 25.455 13.6413 25.6919 15.4975 24.1279C17.3537 22.5639 17.5906 19.7913 16.0266 17.9351L9.5538 10.2529Z" fill="#60A5FA"/>
<path d="M11.0432 2.83185L3.36097 9.30465C1.50476 10.8686 1.26786 13.6413 2.83185 15.4975C4.39584 17.3537 7.16847 17.5906 9.02468 16.0266L16.7069 9.55379C18.5631 7.9898 18.8 5.21718 17.236 3.36096C15.672 1.50475 12.8994 1.26786 11.0432 2.83185Z" fill="#2563EB"/>
<path d="M28.1548 10.6378C28.098 10.0649 27.8542 9.61979 27.4233 9.30256C26.9924 8.98532 26.4077 8.8267 25.669 8.8267C25.1671 8.8267 24.7434 8.89773 24.3977 9.03977C24.0521 9.17708 23.7869 9.36884 23.6023 9.61506C23.4223 9.86127 23.3324 10.1406 23.3324 10.4531C23.3229 10.7135 23.3774 10.9408 23.4957 11.1349C23.6188 11.3291 23.7869 11.4972 24 11.6392C24.2131 11.7765 24.4593 11.8973 24.7386 12.0014C25.018 12.1009 25.3163 12.1861 25.6335 12.2571L26.9403 12.5696C27.5748 12.7116 28.1572 12.901 28.6875 13.1378C29.2178 13.3745 29.6771 13.6657 30.0653 14.0114C30.4536 14.357 30.7543 14.7642 30.9673 15.233C31.1851 15.7017 31.2964 16.2391 31.3011 16.8452C31.2964 17.7353 31.0691 18.5071 30.6193 19.1605C30.1742 19.8092 29.5303 20.3134 28.6875 20.6733C27.8494 21.0284 26.8385 21.206 25.6548 21.206C24.4806 21.206 23.4579 21.026 22.5866 20.6662C21.7202 20.3063 21.0431 19.7737 20.5554 19.0682C20.0724 18.358 19.8191 17.4796 19.7955 16.4332H22.7713C22.8045 16.9209 22.9441 17.3281 23.1903 17.6548C23.4413 17.9768 23.7751 18.2206 24.1918 18.3864C24.6132 18.5473 25.089 18.6278 25.6193 18.6278C26.1402 18.6278 26.5923 18.5521 26.9759 18.4006C27.3641 18.2491 27.6648 18.0384 27.8778 17.7685C28.0909 17.4986 28.1974 17.1884 28.1974 16.8381C28.1974 16.5114 28.1004 16.2367 27.9062 16.0142C27.7169 15.7917 27.4375 15.6023 27.0682 15.446C26.7036 15.2898 26.2562 15.1477 25.7259 15.0199L24.142 14.6222C22.9157 14.3239 21.9474 13.8575 21.2372 13.223C20.527 12.5885 20.1742 11.7339 20.179 10.6591C20.1742 9.77841 20.4086 9.009 20.8821 8.35085C21.3603 7.69271 22.0161 7.17898 22.8494 6.80966C23.6828 6.44034 24.6297 6.25568 25.6903 6.25568C26.7699 6.25568 27.7121 6.44034 28.517 6.80966C29.3267 7.17898 29.9564 7.69271 30.4062 8.35085C30.8561 9.009 31.0881 9.77131 31.1023 10.6378H28.1548ZM36.4237 21.206C35.7276 21.206 35.1074 21.0852 34.5629 20.8438C34.0183 20.5975 33.5875 20.2353 33.2702 19.7571C32.9577 19.2741 32.8015 18.6728 32.8015 17.9531C32.8015 17.3471 32.9128 16.8381 33.1353 16.4261C33.3578 16.0142 33.6609 15.6828 34.0444 15.4318C34.4279 15.1809 34.8635 14.9915 35.3512 14.8636C35.8436 14.7358 36.3597 14.6458 36.8995 14.5938C37.534 14.5275 38.0453 14.4659 38.4336 14.4091C38.8219 14.3475 39.1036 14.2576 39.2788 14.1392C39.454 14.0208 39.5415 13.8456 39.5415 13.6136V13.571C39.5415 13.1212 39.3995 12.7732 39.1154 12.527C38.8361 12.2808 38.4383 12.1577 37.9222 12.1577C37.3777 12.1577 36.9445 12.2784 36.6225 12.5199C36.3005 12.7566 36.0875 13.0549 35.9833 13.4148L33.185 13.1875C33.3271 12.5246 33.6064 11.9517 34.0231 11.4688C34.4397 10.9811 34.9772 10.607 35.6353 10.3466C36.2982 10.0814 37.0652 9.94886 37.9364 9.94886C38.5425 9.94886 39.1225 10.0199 39.6765 10.1619C40.2352 10.304 40.73 10.5241 41.1609 10.8224C41.5965 11.1207 41.9397 11.5043 42.1907 11.973C42.4416 12.437 42.5671 12.9934 42.5671 13.642V21H39.6978V19.4872H39.6126C39.4374 19.8281 39.203 20.1288 38.9094 20.3892C38.6159 20.6449 38.2631 20.8461 37.8512 20.9929C37.4393 21.1349 36.9634 21.206 36.4237 21.206ZM37.2901 19.1179C37.7352 19.1179 38.1282 19.0303 38.4691 18.8551C38.81 18.6752 39.0775 18.4337 39.2717 18.1307C39.4658 17.8277 39.5629 17.4844 39.5629 17.1009V15.9432C39.4682 16.0047 39.338 16.0616 39.1722 16.1136C39.0112 16.161 38.829 16.206 38.6254 16.2486C38.4218 16.2865 38.2182 16.322 38.0146 16.3551C37.811 16.3835 37.6263 16.4096 37.4606 16.4332C37.1055 16.4853 36.7953 16.5682 36.5302 16.6818C36.265 16.7955 36.0591 16.9493 35.9123 17.1435C35.7655 17.3329 35.6921 17.5696 35.6921 17.8537C35.6921 18.2656 35.8413 18.5805 36.1396 18.7983C36.4426 19.0114 36.8261 19.1179 37.2901 19.1179ZM48.9343 21.1776C48.1057 21.1776 47.3552 20.9645 46.6829 20.5384C46.0153 20.1075 45.485 19.4754 45.092 18.642C44.7037 17.804 44.5096 16.7765 44.5096 15.5597C44.5096 14.3097 44.7108 13.2704 45.1133 12.4418C45.5157 11.6084 46.0508 10.9858 46.7184 10.5739C47.3907 10.1572 48.127 9.94886 48.9272 9.94886C49.538 9.94886 50.047 10.053 50.4542 10.2614C50.8661 10.465 51.1976 10.7206 51.4485 11.0284C51.7042 11.3314 51.8983 11.6297 52.0309 11.9233H52.1232V6.45455H55.1417V21H52.1587V19.2528H52.0309C51.8888 19.5559 51.6876 19.8565 51.4272 20.1548C51.1715 20.4484 50.8377 20.6922 50.4258 20.8864C50.0186 21.0805 49.5214 21.1776 48.9343 21.1776ZM49.8931 18.7699C50.3808 18.7699 50.7927 18.6373 51.1289 18.3722C51.4698 18.1023 51.7302 17.7259 51.9102 17.2429C52.0948 16.7599 52.1871 16.1941 52.1871 15.5455C52.1871 14.8968 52.0972 14.3333 51.9173 13.8551C51.7373 13.3769 51.4769 13.0076 51.136 12.7472C50.7951 12.4867 50.3808 12.3565 49.8931 12.3565C49.396 12.3565 48.9769 12.4915 48.636 12.7614C48.2951 13.0312 48.0371 13.4053 47.8619 13.8835C47.6867 14.3617 47.5991 14.9157 47.5991 15.5455C47.5991 16.1799 47.6867 16.741 47.8619 17.2287C48.0418 17.7116 48.2998 18.0904 48.636 18.3651C48.9769 18.6349 49.396 18.7699 49.8931 18.7699ZM60.7401 21.206C60.044 21.206 59.4238 21.0852 58.8793 20.8438C58.3348 20.5975 57.9039 20.2353 57.5866 19.7571C57.2741 19.2741 57.1179 18.6728 57.1179 17.9531C57.1179 17.3471 57.2292 16.8381 57.4517 16.4261C57.6742 16.0142 57.9773 15.6828 58.3608 15.4318C58.7443 15.1809 59.1799 14.9915 59.6676 14.8636C60.16 14.7358 60.6761 14.6458 61.2159 14.5938C61.8504 14.5275 62.3617 14.4659 62.75 14.4091C63.1383 14.3475 63.42 14.2576 63.5952 14.1392C63.7704 14.0208 63.858 13.8456 63.858 13.6136V13.571C63.858 13.1212 63.7159 12.7732 63.4318 12.527C63.1525 12.2808 62.7547 12.1577 62.2386 12.1577C61.6941 12.1577 61.2609 12.2784 60.9389 12.5199C60.617 12.7566 60.4039 13.0549 60.2997 13.4148L57.5014 13.1875C57.6435 12.5246 57.9228 11.9517 58.3395 11.4688C58.7562 10.9811 59.2936 10.607 59.9517 10.3466C60.6146 10.0814 61.3816 9.94886 62.2528 9.94886C62.8589 9.94886 63.4389 10.0199 63.9929 10.1619C64.5516 10.304 65.0464 10.5241 65.4773 10.8224C65.9129 11.1207 66.2562 11.5043 66.5071 11.973C66.758 12.437 66.8835 12.9934 66.8835 13.642V21H64.0142V19.4872H63.929C63.7538 19.8281 63.5194 20.1288 63.2259 20.3892C62.9323 20.6449 62.5795 20.8461 62.1676 20.9929C61.7557 21.1349 61.2798 21.206 60.7401 21.206ZM61.6065 19.1179C62.0516 19.1179 62.4446 19.0303 62.7855 18.8551C63.1264 18.6752 63.3939 18.4337 63.5881 18.1307C63.7822 17.8277 63.8793 17.4844 63.8793 17.1009V15.9432C63.7846 16.0047 63.6544 16.0616 63.4886 16.1136C63.3277 16.161 63.1454 16.206 62.9418 16.2486C62.7382 16.2865 62.5346 16.322 62.331 16.3551C62.1274 16.3835 61.9427 16.4096 61.777 16.4332C61.4219 16.4853 61.1117 16.5682 60.8466 16.6818C60.5814 16.7955 60.3755 16.9493 60.2287 17.1435C60.0819 17.3329 60.0085 17.5696 60.0085 17.8537C60.0085 18.2656 60.1577 18.5805 60.456 18.7983C60.759 19.0114 61.1425 19.1179 61.6065 19.1179ZM69.4308 21V10.0909H72.4564V21H69.4308ZM70.9507 8.68466C70.5009 8.68466 70.115 8.53551 69.793 8.23722C69.4758 7.93419 69.3172 7.57197 69.3172 7.15057C69.3172 6.7339 69.4758 6.37642 69.793 6.07812C70.115 5.77509 70.5009 5.62358 70.9507 5.62358C71.4005 5.62358 71.784 5.77509 72.1013 6.07812C72.4232 6.37642 72.5842 6.7339 72.5842 7.15057C72.5842 7.57197 72.4232 7.93419 72.1013 8.23722C71.784 8.53551 71.4005 8.68466 70.9507 8.68466ZM77.9056 14.6932V21H74.88V10.0909H77.7636V12.0156H77.8914C78.1329 11.3812 78.5377 10.8793 79.1059 10.5099C79.6741 10.1359 80.363 9.94886 81.1727 9.94886C81.9302 9.94886 82.5907 10.1146 83.1542 10.446C83.7176 10.7775 84.1556 11.2509 84.4681 11.8665C84.7806 12.4773 84.9369 13.2064 84.9369 14.054V21H81.9113V14.5938C81.916 13.9261 81.7456 13.4053 81.3999 13.0312C81.0543 12.6525 80.5784 12.4631 79.9724 12.4631C79.5652 12.4631 79.2053 12.5507 78.8928 12.7259C78.5851 12.901 78.3436 13.1567 78.1684 13.4929C77.9979 13.8243 77.9103 14.2244 77.9056 14.6932Z" fill="black"/>
<path d="M73 7C73 5.89543 72.1046 5 71 5C69.8954 5 69 5.89543 69 7C69 8.10457 69.8954 9 71 9C72.1046 9 73 8.10457 73 7Z" fill="#2563EB"/>
</svg>
